<?xml version="1.0" encoding="UTF-8"?>
<svg version="1.1" xmlns="http://www.w3.org/2000/svg" width="249" height="217">
<path d="M0 0 C82.17 0 164.34 0 249 0 C249 71.61 249 143.22 249 217 C166.83 217 84.66 217 0 217 C0 145.39 0 73.78 0 0 Z " fill="#F9F9FA" transform="translate(0,0)"/>
<path d="M0 0 C5.8171921 4.23254399 10.27726274 9.63665783 12.22265625 16.6171875 C13.16543887 24.68910164 12.46109471 30.6569489 8.31640625 37.69140625 C7.05803696 39.53791738 7.05803696 39.53791738 7.22265625 41.6171875 C13.47438011 44.48683124 18.3191307 46.12855976 25.22265625 45.6171875 C25.51140625 44.9984375 25.80015625 44.3796875 26.09765625 43.7421875 C27.22265625 41.6171875 27.22265625 41.6171875 29.22265625 39.6171875 C32.09765625 39.6796875 32.09765625 39.6796875 35.22265625 40.6171875 C35.82078125 41.3803125 36.41890625 42.1434375 37.03515625 42.9296875 C39.30373398 45.71679729 40.2581922 46.22288631 43.47265625 47.4921875 C51.84402209 51.01336757 56.39774934 56.24210783 60.72265625 64.0546875 C61.07336182 64.67512939 61.42406738 65.29557129 61.78540039 65.93481445 C64.15628003 70.50265744 65.12339376 74.49275525 64.22265625 79.6171875 C63.26654525 82.35532812 61.97585231 84.79316887 60.53515625 87.3046875 C60.0256543 88.26084961 60.0256543 88.26084961 59.50585938 89.23632812 C57.77171527 92.37723585 56.20833001 94.63106538 53.6015625 97.15625 C50.76846497 100.08704054 50.00468151 102.42038842 48.84765625 106.3046875 C46.60852403 113.02912545 43.63693683 118.1145935 39.22265625 123.6171875 C38.76632813 124.20113281 38.31 124.78507813 37.83984375 125.38671875 C35.18016869 128.69040318 32.25954309 131.66706886 29.22265625 134.6171875 C29.88265625 135.2771875 30.54265625 135.9371875 31.22265625 136.6171875 C31.47489284 139.14835236 31.59289288 141.52295393 31.59765625 144.0546875 C31.62214844 144.73595703 31.64664063 145.41722656 31.671875 146.11914062 C31.691201 149.40778118 31.65764156 151.15295948 29.36328125 153.6015625 C26.54812 154.93722295 25.13373234 154.61308195 22.22265625 153.6171875 C20.22265625 151.6171875 20.22265625 151.6171875 20.02734375 148.578125 C20.05054688 147.39476562 20.07375 146.21140625 20.09765625 144.9921875 C20.11570312 143.80367187 20.13375 142.61515625 20.15234375 141.390625 C20.17554688 140.47539062 20.19875 139.56015625 20.22265625 138.6171875 C19.10890625 139.2359375 17.99515625 139.8546875 16.84765625 140.4921875 C12.13850734 142.87207996 7.40475631 143.81013913 2.22265625 144.6171875 C2.28453125 145.7103125 2.34640625 146.8034375 2.41015625 147.9296875 C2.22265625 151.6171875 2.22265625 151.6171875 1.03515625 153.5546875 C-1.43783468 155.00437184 -2.95618887 155.04036073 -5.77734375 154.6171875 C-7.58984375 153.1171875 -7.58984375 153.1171875 -8.77734375 151.6171875 C-9.61265625 152.3596875 -9.61265625 152.3596875 -10.46484375 153.1171875 C-13.22856797 154.90987348 -14.54556906 155.19724962 -17.77734375 154.6171875 C-19.58984375 152.8671875 -19.58984375 152.8671875 -20.77734375 150.6171875 C-20.77734375 149.2971875 -20.77734375 147.9771875 -20.77734375 146.6171875 C-21.5971875 146.55660156 -22.41703125 146.49601563 -23.26171875 146.43359375 C-24.339375 146.34980469 -25.41703125 146.26601562 -26.52734375 146.1796875 C-28.12835938 146.05787109 -28.12835938 146.05787109 -29.76171875 145.93359375 C-32.21414337 145.67627977 -34.41655666 145.29906532 -36.77734375 144.6171875 C-37.04546875 145.8959375 -37.31359375 147.1746875 -37.58984375 148.4921875 C-38.34924474 152.11394605 -38.47812178 152.41770618 -41.77734375 154.6171875 C-44.27734375 154.9921875 -44.27734375 154.9921875 -46.77734375 154.6171875 C-49.05950063 152.32421471 -49.74586871 151.06916902 -49.97265625 147.8125 C-49.94945312 146.79929688 -49.92625 145.78609375 -49.90234375 144.7421875 C-50.10238575 140.30293379 -50.10238575 140.30293379 -52.51953125 136.78125 C-54.06411023 135.81388393 -55.63976967 134.89490664 -57.23828125 134.01953125 C-65.77328435 129.30558339 -71.19075208 122.02989969 -75.77734375 113.6171875 C-76.43089844 112.46476562 -76.43089844 112.46476562 -77.09765625 111.2890625 C-80.90740567 103.45643082 -80.13184919 95.1056234 -79.77734375 86.6171875 C-84.23234375 87.6071875 -84.23234375 87.6071875 -88.77734375 88.6171875 C-89.53907767 92.9336797 -89.93797979 96.36152203 -88.77734375 100.6171875 C-89.76734375 100.6171875 -90.75734375 100.6171875 -91.77734375 100.6171875 C-93.88670786 97.96095121 -94.71919117 95.96610296 -95.27734375 92.6171875 C-94.6068097 88.59398319 -92.82040315 87.22552413 -89.77734375 84.6171875 C-88.78734375 83.6271875 -88.78734375 83.6271875 -87.77734375 82.6171875 C-85.61328125 82.421875 -85.61328125 82.421875 -83.15234375 82.4921875 C-82.33507812 82.51023437 -81.5178125 82.52828125 -80.67578125 82.546875 C-80.04929687 82.57007812 -79.4228125 82.59328125 -78.77734375 82.6171875 C-78.66390625 81.73546875 -78.55046875 80.85375 -78.43359375 79.9453125 C-76.16600734 68.44541 -67.19592939 58.65432232 -58.02734375 51.8671875 C-53.13730778 48.61995796 -47.93630474 46.21673549 -42.5625 43.87890625 C-39.65398189 42.65189408 -39.65398189 42.65189408 -36.77734375 40.6171875 C-37.41671875 39.5446875 -38.05609375 38.4721875 -38.71484375 37.3671875 C-42.76345057 30.57597606 -42.91478758 22.46160189 -41.12890625 14.85546875 C-38.64466634 7.92295309 -34.90948002 3.06882469 -28.55859375 -0.69921875 C-19.23909071 -5.04125994 -8.97319213 -5.16505693 0 0 Z " fill="#FEB7D0" transform="translate(139.77734375,23.3828125)"/>
<path d="M0 0 C2.875 0.0625 2.875 0.0625 6 1 C6.598125 1.763125 7.19625 2.52625 7.8125 3.3125 C10.08107773 6.09960979 11.03553595 6.60569881 14.25 7.875 C22.62136584 11.39618007 27.17509309 16.62492033 31.5 24.4375 C32.02605835 25.36816284 32.02605835 25.36816284 32.56274414 26.31762695 C34.93362378 30.88546994 35.90073751 34.87556775 35 40 C34.043889 42.73814062 32.75319606 45.17598137 31.3125 47.6875 C30.97283203 48.32494141 30.63316406 48.96238281 30.28320312 49.61914062 C28.54905902 52.76004835 26.98567376 55.01387788 24.37890625 57.5390625 C21.54580872 60.46985304 20.78202526 62.80320092 19.625 66.6875 C17.38586778 73.41193795 14.41428058 78.497406 10 84 C9.54367188 84.58394531 9.08734375 85.16789062 8.6171875 85.76953125 C5.95751244 89.07321568 3.03688684 92.04988136 0 95 C0.66 95.66 1.32 96.32 2 97 C2.25223659 99.53116486 2.37023663 101.90576643 2.375 104.4375 C2.39949219 105.11876953 2.42398438 105.80003906 2.44921875 106.50195312 C2.46854475 109.79059368 2.43498531 111.53577198 0.140625 113.984375 C-2.67453625 115.32003545 -4.08892391 114.99589445 -7 114 C-9 112 -9 112 -9.1953125 108.9609375 C-9.17210937 107.77757812 -9.14890625 106.59421875 -9.125 105.375 C-9.10695313 104.18648438 -9.08890625 102.99796875 -9.0703125 101.7734375 C-9.04710937 100.85820312 -9.02390625 99.94296875 -9 99 C-10.11375 99.61875 -11.2275 100.2375 -12.375 100.875 C-17.08414891 103.25489246 -21.81789994 104.19295163 -27 105 C-26.938125 106.093125 -26.87625 107.18625 -26.8125 108.3125 C-27 112 -27 112 -28.1875 113.9375 C-30.66049093 115.38718434 -32.17884512 115.42317323 -35 115 C-36.8125 113.5 -36.8125 113.5 -38 112 C-38.556875 112.495 -39.11375 112.99 -39.6875 113.5 C-42.45122422 115.29268598 -43.76822531 115.58006212 -47 115 C-48.8125 113.25 -48.8125 113.25 -50 111 C-50 109.68 -50 108.36 -50 107 C-50.81984375 106.93941406 -51.6396875 106.87882812 -52.484375 106.81640625 C-54.10085937 106.69072266 -54.10085937 106.69072266 -55.75 106.5625 C-57.35101563 106.44068359 -57.35101563 106.44068359 -58.984375 106.31640625 C-61.43679962 106.05909227 -63.63921291 105.68187782 -66 105 C-66.268125 106.27875 -66.53625 107.5575 -66.8125 108.875 C-67.57190099 112.49675855 -67.70077803 112.80051868 -71 115 C-73.5 115.375 -73.5 115.375 -76 115 C-78.28215688 112.70702721 -78.96852496 111.45198152 -79.1953125 108.1953125 C-79.17210937 107.18210937 -79.14890625 106.16890625 -79.125 105.125 C-79.325042 100.68574629 -79.325042 100.68574629 -81.7421875 97.1640625 C-83.28676648 96.19669643 -84.86242592 95.27771914 -86.4609375 94.40234375 C-94.9959406 89.68839589 -100.41340833 82.41271219 -105 74 C-105.65355469 72.84757812 -105.65355469 72.84757812 -106.3203125 71.671875 C-110.13006192 63.83924332 -109.35450544 55.4884359 -109 47 C-111.97 47.66 -114.94 48.32 -118 49 C-118.76173392 53.3164922 -119.16063604 56.74433453 -118 61 C-118.99 61 -119.98 61 -121 61 C-123.10936411 58.34376371 -123.94184742 56.34891546 -124.5 53 C-123.82946595 48.97679569 -122.0430594 47.60833663 -119 45 C-118.34 44.34 -117.68 43.68 -117 43 C-114.8359375 42.8046875 -114.8359375 42.8046875 -112.375 42.875 C-111.55773437 42.89304688 -110.74046875 42.91109375 -109.8984375 42.9296875 C-109.27195312 42.95289063 -108.64546875 42.97609375 -108 43 C-107.82984375 41.67742187 -107.82984375 41.67742187 -107.65625 40.328125 C-105.38866359 28.8282225 -96.41858564 19.03713482 -87.25 12.25 C-80.24867529 7.62627695 -72.35612617 3.32833059 -64 2 C-63.34 2.99 -62.68 3.98 -62 5 C-62.94359375 5.3403125 -63.8871875 5.680625 -64.859375 6.03125 C-80.88526823 12.00320262 -94.16720821 20.33441642 -102 36 C-103.1653588 38.96158852 -104.15525227 41.93223193 -105 45 C-103.35 45.66 -101.7 46.32 -100 47 C-100 47.66 -100 48.32 -100 49 C-101.98 48.67 -103.96 48.34 -106 48 C-104.4130299 64.83023556 -100.64466147 78.00977757 -87.16015625 89.265625 C-86.09087891 90.12414062 -86.09087891 90.12414062 -85 91 C-83.4840625 92.2684375 -83.4840625 92.2684375 -81.9375 93.5625 C-78.79467793 95.10047676 -78.14198846 95.07157257 -74.875 94.5 C-71 94 -71 94 -68.5 95.75 C-67 98 -67 98 -67 101 C-66.443125 101.06058594 -65.88625 101.12117188 -65.3125 101.18359375 C-60.20206543 101.74470565 -55.10000447 102.35090852 -50 103 C-50.061875 102.071875 -50.12375 101.14375 -50.1875 100.1875 C-50 97 -50 97 -48.9375 95.0625 C-45.81651045 93.3509896 -43.35466116 94.20708009 -40 95 C-39.34 95.66 -38.68 96.32 -38 97 C-37.608125 96.505 -37.21625 96.01 -36.8125 95.5 C-35 94 -35 94 -32.5 93.625 C-30 94 -30 94 -28.1875 95.1875 C-26.63824946 97.55214556 -26.91371748 99.22533581 -27 102 C-13.31919249 96.78557676 -13.31919249 96.78557676 -1 89 C-0.3915625 88.56429687 0.216875 88.12859375 0.84375 87.6796875 C8.50164493 81.80191727 13.09745553 73.04910923 16 64 C15.47792969 64.2165625 14.95585937 64.433125 14.41796875 64.65625 C7.03060663 67.45076877 -0.71118453 68.6717702 -8.1875 65.5 C-9.115625 65.005 -10.04375 64.51 -11 64 C-11 62.02 -11 60.04 -11 58 C-10.67 58.99 -10.34 59.98 -10 61 C-1.35315694 62.96591811 7.5910418 63.11790265 15.765625 59.41796875 C19.60671787 56.98035212 22.4264682 53.72395164 25 50 C25 49.67 25 49.34 25 49 C24.27554688 49.04640625 23.55109375 49.0928125 22.8046875 49.140625 C16.66128965 49.36997852 12.72584743 49.38005371 8 45 C5.47922883 41.94854016 4.15169634 39.91017806 3.5 36 C4.39704681 30.61771915 6.87842101 27.83568631 11.1875 24.625 C15.31302381 22.47294104 19.44463962 22.4340591 24 23 C24.66 23.33 25.32 23.66 26 24 C22.46992876 17.82237533 17.79930259 13.5259494 11.140625 10.8515625 C4.47950912 9.04543904 -3.17325214 8.69487841 -9.5 11.75 C-10.68621091 12.46868963 -11.85574786 13.21622825 -13 14 C-14.3303125 14.8353125 -14.3303125 14.8353125 -15.6875 15.6875 C-20.9094289 20.9094289 -24.11078547 27.68399473 -24.3125 35.0625 C-24.2626756 42.57601947 -21.32521931 48.42445371 -18 55 C-20.75 54.625 -20.75 54.625 -24 53 C-29.14126041 45.55296219 -28 37.98099669 -28 29 C-37.24 29 -46.48 29 -56 29 C-55.67 27.35 -55.34 25.7 -55 24 C-53.78268188 24.07855225 -53.78268188 24.07855225 -52.54077148 24.15869141 C-48.84047855 24.3673893 -45.1414209 24.49683665 -41.4375 24.625 C-40.16068359 24.70878906 -38.88386719 24.79257813 -37.56835938 24.87890625 C-30.49645287 25.22316291 -30.49645287 25.22316291 -24.63891602 21.82177734 C-22.89200809 19.28578773 -21.46356257 16.70464618 -20 14 C-17.0625 11.375 -17.0625 11.375 -15 10 C-19.39251833 7.97944157 -23.15340923 6.59104765 -28 6 C-26.68 4.68 -25.36 3.36 -24 2 C-23.443125 2.20496094 -22.88625 2.40992187 -22.3125 2.62109375 C-16.16837509 4.79021893 -10.55730071 6 -4 6 C-3.71125 5.38125 -3.4225 4.7625 -3.125 4.125 C-2 2 -2 2 0 0 Z " fill="#FE71A1" transform="translate(169,63)"/>
<path d="M0 0 C5.8171921 4.23254399 10.27726274 9.63665783 12.22265625 16.6171875 C13.48222667 26.17964045 11.86085154 33.73063213 6.22265625 41.6171875 C0.10709314 47.85266361 -6.23394288 50.87058921 -15.02734375 51.0546875 C-22.66720752 50.90676303 -28.1217875 48.8581249 -33.84375 43.78515625 C-39.58511941 37.70817443 -41.87461159 32.05661098 -42.21484375 23.7421875 C-41.97965715 15.97123021 -39.89026388 9.57448154 -34.65234375 3.7421875 C-25.06533562 -4.84955919 -11.18690053 -6.43928908 0 0 Z " fill="#FFD500" transform="translate(139.77734375,23.3828125)"/>
<path d="M0 0 C4.86121977 2.52495888 11.15007677 6.23501959 12.90625 11.65625 C12.9990625 12.2440625 13.091875 12.831875 13.1875 13.4375 C12.47464844 13.39109375 11.76179688 13.3446875 11.02734375 13.296875 C4.42582662 13.04809643 0.47560379 13.36125333 -4.8125 17.4375 C-7.04813374 20.17795426 -7.73038755 21.88617355 -8.25 25.375 C-7.68529294 29.32794945 -6.33817829 31.36572911 -3.8125 34.4375 C0.05779428 37.29990514 2.72709847 37.7823484 7.5 37.625 C8.56863281 37.59792969 9.63726562 37.57085937 10.73828125 37.54296875 C11.95064453 37.49076172 11.95064453 37.49076172 13.1875 37.4375 C11.06331851 43.68130619 6.91204353 47.19332472 1.33984375 50.55078125 C-5.23846344 53.49775114 -13.94959621 53.79811794 -20.70703125 51.41796875 C-21.40183594 51.09441406 -22.09664063 50.77085938 -22.8125 50.4375 C-22.8125 52.0875 -22.8125 53.7375 -22.8125 55.4375 C-24.2975 55.9325 -24.2975 55.9325 -25.8125 56.4375 C-26.1425 55.7775 -26.4725 55.1175 -26.8125 54.4375 C-27.4725 54.4375 -28.1325 54.4375 -28.8125 54.4375 C-29.3075 55.4275 -29.3075 55.4275 -29.8125 56.4375 C-30.8025 56.4375 -31.7925 56.4375 -32.8125 56.4375 C-32.8125 54.1275 -32.8125 51.8175 -32.8125 49.4375 C-34.19993406 48.73320341 -35.59794635 48.04972402 -37 47.375 C-37.77730469 46.99214844 -38.55460937 46.60929687 -39.35546875 46.21484375 C-42.44794623 45.23646057 -43.77461032 45.2715821 -46.8125 46.4375 C-48.89068917 48.31160697 -50.67210349 50.09847542 -52.5 52.1875 C-52.98533203 52.7134375 -53.47066406 53.239375 -53.97070312 53.78125 C-56.73335966 56.86018308 -58.33938118 59.61292391 -59.8125 63.4375 C-62.4375 64.25 -62.4375 64.25 -64.8125 64.4375 C-65.05613281 63.81359375 -65.29976562 63.1896875 -65.55078125 62.546875 C-67.49407951 59.29801723 -69.9415719 58.98581493 -73.453125 57.99609375 C-76.99628044 57.1572341 -79.17259673 56.73506253 -82.8125 57.4375 C-88.34716635 60.94646152 -92.68041075 64.63093195 -95.8125 70.4375 C-97.4625 70.1075 -99.1125 69.7775 -100.8125 69.4375 C-101.4375 67.0625 -101.4375 67.0625 -101.8125 64.4375 C-99.8125 62.4375 -99.8125 62.4375 -97.51171875 61.5546875 C-94.43112095 60.27964992 -92.22289361 58.64553119 -89.625 56.5625 C-88.33529297 55.54542969 -88.33529297 55.54542969 -87.01953125 54.5078125 C-84.92207221 52.54028455 -83.87220354 51.07787864 -82.8125 48.4375 C-79.43824368 48.05187071 -78.15133091 48.18554881 -75.375 50.25 C-74.529375 50.971875 -73.68375 51.69375 -72.8125 52.4375 C-68.99953998 54.66172668 -66.23242618 56.20223796 -61.8125 55.4375 C-59.68878476 53.4327604 -57.98097962 51.57898524 -56.1875 49.3125 C-55.71054688 48.74273437 -55.23359375 48.17296875 -54.7421875 47.5859375 C-51.86921243 44.07452353 -49.69588111 40.59610662 -47.8125 36.4375 C-43.55030103 36.91107766 -41.73130736 37.40194035 -38.8125 40.4375 C-36.52155214 41.57781414 -34.19541669 42.49332546 -31.8125 43.4375 C-32.33650391 42.53257813 -32.33650391 42.53257813 -32.87109375 41.609375 C-33.32613281 40.81015625 -33.78117187 40.0109375 -34.25 39.1875 C-34.70246094 38.39859375 -35.15492188 37.6096875 -35.62109375 36.796875 C-38.66872096 30.7615739 -38.94764765 23.39817821 -37.09375 16.9296875 C-33.67212575 8.78953304 -28.57851599 3.51547074 -20.8125 -0.5625 C-14.3025175 -2.73249417 -6.37434833 -2.60313701 0 0 Z " fill="#FEB6D0" transform="translate(181.8125,73.5625)"/>
<path d="M0 0 C5.8171921 4.23254399 10.27726274 9.63665783 12.22265625 16.6171875 C13.48222667 26.17964045 11.86085154 33.73063213 6.22265625 41.6171875 C0.10709314 47.85266361 -6.23394288 50.87058921 -15.02734375 51.0546875 C-22.66720752 50.90676303 -28.1217875 48.8581249 -33.84375 43.78515625 C-39.58511941 37.70817443 -41.87461159 32.05661098 -42.21484375 23.7421875 C-41.97965715 15.97123021 -39.89026388 9.57448154 -34.65234375 3.7421875 C-25.06533562 -4.84955919 -11.18690053 -6.43928908 0 0 Z M-30.77734375 10.6171875 C-34.56780575 16.03213321 -35.4675969 21.03513069 -34.77734375 27.6171875 C-32.82766705 33.36873378 -30.31658957 37.79413922 -25.33984375 41.3671875 C-19.93221837 44.00505354 -14.11616264 44.65593115 -8.31640625 42.8515625 C-2.26722844 40.27203322 1.17615173 37.13935715 4.21875 31.296875 C6.21355851 25.97221105 6.31604368 21.44843869 4.26171875 16.12890625 C1.47084623 10.69825941 -1.6643166 7.34664703 -7.02734375 4.3671875 C-16.04173146 1.90871812 -23.95953296 4.17814397 -30.77734375 10.6171875 Z " fill="#FFCE00" transform="translate(139.77734375,23.3828125)"/>
<path d="M0 0 C4.21929116 0.46881013 6.1503639 0.91289423 9 4 C13.35198152 6.57162545 17.03288781 7.33135028 22 8 C24.39763185 10.39763185 24.34280586 11.33273498 24.625 14.625 C24.73714844 15.85089844 24.73714844 15.85089844 24.8515625 17.1015625 C24.90054688 17.72804688 24.94953125 18.35453125 25 19 C23.515 19.495 23.515 19.495 22 20 C21.505 19.01 21.505 19.01 21 18 C20.34 18 19.68 18 19 18 C18.67 18.66 18.34 19.32 18 20 C17.01 20 16.02 20 15 20 C15 17.69 15 15.38 15 13 C13.61256594 12.29570341 12.21455365 11.61222402 10.8125 10.9375 C10.03519531 10.55464844 9.25789063 10.17179687 8.45703125 9.77734375 C5.36455377 8.79896057 4.03788968 8.8340821 1 10 C-1.07818917 11.87410697 -2.85960349 13.66097542 -4.6875 15.75 C-5.17283203 16.2759375 -5.65816406 16.801875 -6.15820312 17.34375 C-8.92085966 20.42268308 -10.52688118 23.17542391 -12 27 C-14.625 27.8125 -14.625 27.8125 -17 28 C-17.24363281 27.37609375 -17.48726562 26.7521875 -17.73828125 26.109375 C-19.68157951 22.86051723 -22.1290719 22.54831493 -25.640625 21.55859375 C-29.18378044 20.7197341 -31.36009673 20.29756253 -35 21 C-40.53466635 24.50896152 -44.86791075 28.19343195 -48 34 C-49.65 33.67 -51.3 33.34 -53 33 C-53.625 30.625 -53.625 30.625 -54 28 C-52 26 -52 26 -49.69921875 25.1171875 C-46.61862095 23.84214992 -44.41039361 22.20803119 -41.8125 20.125 C-40.52279297 19.10792969 -40.52279297 19.10792969 -39.20703125 18.0703125 C-37.10957221 16.10278455 -36.05970354 14.64037864 -35 12 C-31.62574368 11.61437071 -30.33883091 11.74804881 -27.5625 13.8125 C-26.716875 14.534375 -25.87125 15.25625 -25 16 C-21.18703998 18.22422668 -18.41992618 19.76473796 -14 19 C-11.87628476 16.9952604 -10.16847962 15.14148524 -8.375 12.875 C-7.65957031 12.02035156 -7.65957031 12.02035156 -6.9296875 11.1484375 C-4.05671243 7.63702353 -1.88338111 4.15860662 0 0 Z " fill="#54AF56" transform="translate(134,110)"/>
<path d="M0 0 C5.8171921 4.23254399 10.27726274 9.63665783 12.22265625 16.6171875 C13.48222667 26.17964045 11.86085154 33.73063213 6.22265625 41.6171875 C0.10709314 47.85266361 -6.23394288 50.87058921 -15.02734375 51.0546875 C-22.66720752 50.90676303 -28.1217875 48.8581249 -33.84375 43.78515625 C-39.58511941 37.70817443 -41.87461159 32.05661098 -42.21484375 23.7421875 C-41.97965715 15.97123021 -39.89026388 9.57448154 -34.65234375 3.7421875 C-25.06533562 -4.84955919 -11.18690053 -6.43928908 0 0 Z M-35.3671875 10.5546875 C-39.43393454 16.50272749 -39.63182254 22.62114238 -38.77734375 29.6171875 C-36.07771751 37.54733957 -30.58069929 42.46434474 -23.46484375 46.4921875 C-16.65259189 48.57050163 -11.06432059 48.53318973 -4.52734375 45.5546875 C2.45508068 41.66338346 6.87534972 36.31113669 9.22265625 28.6171875 C10.39075281 20.9337079 8.59120575 14.98844735 4.22265625 8.6171875 C-0.24466932 3.5768558 -5.57985565 0.19131201 -12.34765625 -0.734375 C-22.62898098 -1.27851196 -28.86223048 2.9271256 -35.3671875 10.5546875 Z " fill="#FEA809" transform="translate(139.77734375,23.3828125)"/>
<path d="M0 0 C0.66 0.33 1.32 0.66 2 1 C1.505 1.763125 1.01 2.52625 0.5 3.3125 C-1.24368308 5.92363751 -1.24368308 5.92363751 -1 9 C-1.556875 9.14695312 -2.11375 9.29390625 -2.6875 9.4453125 C-10.75838594 11.81749857 -16.70667713 15.2320385 -20.9375 22.6875 C-24.41214288 29.50722281 -25.36529506 36.35411443 -23.17578125 43.8046875 C-21.64498746 47.640208 -19.8627159 51.31652125 -18 55 C-20.75 54.625 -20.75 54.625 -24 53 C-29.14126041 45.55296219 -28 37.98099669 -28 29 C-37.24 29 -46.48 29 -56 29 C-55.67 27.35 -55.34 25.7 -55 24 C-53.78268188 24.07855225 -53.78268188 24.07855225 -52.54077148 24.15869141 C-48.84047855 24.3673893 -45.1414209 24.49683665 -41.4375 24.625 C-40.16068359 24.70878906 -38.88386719 24.79257813 -37.56835938 24.87890625 C-30.49645287 25.22316291 -30.49645287 25.22316291 -24.63891602 21.82177734 C-22.89200809 19.28578773 -21.46356257 16.70464618 -20 14 C-17.0625 11.375 -17.0625 11.375 -15 10 C-19.39251833 7.97944157 -23.15340923 6.59104765 -28 6 C-26.68 4.68 -25.36 3.36 -24 2 C-23.443125 2.20496094 -22.88625 2.40992187 -22.3125 2.62109375 C-16.16837509 4.79021893 -10.55730071 6 -4 6 C-3.566875 5.071875 -3.566875 5.071875 -3.125 4.125 C-2 2 -2 2 0 0 Z " fill="#FE72A1" transform="translate(169,63)"/>
<path d="M0 0 C2.72624138 1.77522695 4.20461784 2.86661803 5.6875 5.75 C6.21616286 8.78981143 6.29445589 10.74770886 4.66796875 13.43359375 C2.5021781 16.16209738 1.02351196 17.63799601 -2.3125 18.75 C-7.93641086 19.11878104 -11.44762635 18.9178247 -16.3125 15.75 C-18.73622149 13.40706923 -19.25104224 12.16264495 -19.75 8.8125 C-19.20474857 4.99574002 -18.01795085 3.45545085 -15.3125 0.75 C-10.7554184 -2.6678112 -5.00892229 -1.89015936 0 0 Z " fill="#FFC2D8" transform="translate(195.3125,90.25)"/>
<path d="M0 0 C12.625 -0.25 12.625 -0.25 16 2 C16.375 5.4375 16.375 5.4375 16 9 C15.01 9.99 14.02 10.98 13 12 C14.65 14.64 16.3 17.28 18 20 C15.875 20.4375 15.875 20.4375 13 20 C11.28026255 18.32325598 9.86698421 16.55177618 8.4296875 14.62890625 C6.99501854 12.71811591 6.99501854 12.71811591 4 12 C4 14.64 4 17.28 4 20 C2.68 20 1.36 20 0 20 C0 13.4 0 6.8 0 0 Z " fill="#FFA600" transform="translate(117,36)"/>
<path d="M0 0 C4.03256947 3.05232037 7.06624346 6.78286119 8.9765625 11.49609375 C9.83904434 19.07791085 9.81959197 26.30152117 4.9765625 32.49609375 C-0.40681514 38.07523058 -4.37422472 39.67420406 -12.2109375 39.93359375 C-18.14807582 39.99824369 -22.08116954 39.25011368 -26.51171875 35.13671875 C-27.26001953 34.32460937 -27.26001953 34.32460937 -28.0234375 33.49609375 C-28.8071875 32.69171875 -29.5909375 31.88734375 -30.3984375 31.05859375 C-33.76355817 25.7520573 -34.95282888 19.71586683 -34.0234375 13.49609375 C-31.738345 5.94661093 -26.24617373 1.05196041 -19.6484375 -2.94140625 C-12.23762749 -4.52943697 -6.49335686 -4.04974376 0 0 Z M-28.0234375 5.49609375 C-31.8138995 10.91103946 -32.71369065 15.91403694 -32.0234375 22.49609375 C-30.0737608 28.24764003 -27.56268332 32.67304547 -22.5859375 36.24609375 C-17.17831212 38.88395979 -11.36225639 39.5348374 -5.5625 37.73046875 C0.48667781 35.15093947 3.93005798 32.0182634 6.97265625 26.17578125 C8.96746476 20.8511173 9.06994993 16.32734494 7.015625 11.0078125 C4.22475248 5.57716566 1.08958965 2.22555328 -4.2734375 -0.75390625 C-13.28782521 -3.21237563 -21.20562671 -0.94294978 -28.0234375 5.49609375 Z " fill="#FFAC00" transform="translate(137.0234375,28.50390625)"/>
<path d="M0 0 C1.67542976 0.28604898 3.34385343 0.61781233 5 1 C5 2.65 5 4.3 5 6 C2.625 6.625 2.625 6.625 0 7 C-0.66 6.34 -1.32 5.68 -2 5 C-1.46428571 1.46428571 -1.46428571 1.46428571 0 0 Z " fill="#FF71A1" transform="translate(166,84)"/>
<path d="M0 0 C2.31 0 4.62 0 7 0 C7 1.32 7 2.64 7 4 C4.69 4 2.38 4 0 4 C0 2.68 0 1.36 0 0 Z " fill="#FFD600" transform="translate(121,40)"/>
<path d="M0 0 C1.9375 0.3125 1.9375 0.3125 4 1 C4.33 1.99 4.66 2.98 5 4 C2.36 4 -0.28 4 -3 4 C-2.01 2.68 -1.02 1.36 0 0 Z " fill="#FFB4CE" transform="translate(170,66)"/>
<path d="M0 0 C0.99 0 1.98 0 3 0 C3 1.65 3 3.3 3 5 C1.68 4.67 0.36 4.34 -1 4 C-0.67 2.68 -0.34 1.36 0 0 Z " fill="#FF78A5" transform="translate(192,93)"/>
</svg>
